<?xml version="1.0" encoding="iso-8859-1"?>
<!-- Uploaded to: SVG Repo, www.svgrepo.com, Generator: SVG Repo Mixer Tools -->
<svg height="800px" width="800px" version="1.1" id="Capa_1" xmlns="http://www.w3.org/2000/svg" xmlns:xlink="http://www.w3.org/1999/xlink" 
	 viewBox="0 0 439.801 439.801" xml:space="preserve">
<g>
	<polygon style="fill:#BADFE8;" points="52.914,232.164 68.732,232.164 73.413,223.561 52.286,223.561 	"/>
	<path style="fill:#C69C6D;" d="M143.147,74.784c-3.6,2.497-7.678,3.917-12,3.917c-4.322,0-8.4-1.419-12-3.917v5.175l12,23.487
		l12-23.487V74.784z"/>
	<polygon style="fill:#BADFE8;" points="141.098,94.96 153.98,100.829 154.609,86.295 146.885,83.633 	"/>
	<path style="fill:#BADFE8;" d="M133.649,109.539v125.309h32.463v-94.98c0-0.443,0.122-0.774,0.139-0.822l14.447-41.473
		c-3.176-2.841-7.572-5.424-13.677-7.007c-0.062-0.016-0.125-0.035-0.187-0.056l-7.293-2.514l-0.727,16.754
		c-0.036,0.83-0.482,1.588-1.191,2.023c-0.399,0.245-0.852,0.369-1.307,0.369c-0.353,0-0.706-0.075-1.036-0.225l-16.46-7.499
		L133.649,109.539z"/>
	<path style="fill:#BADFE8;" d="M186.728,218.561h22.933L188.87,112.56c-0.017-0.086-0.029-0.173-0.037-0.261
		c-0.035-0.362-0.584-5.263-4.319-10.481l-13.317,38.231L186.728,218.561z"/>
	<path style="fill:#BADFE8;" d="M193.562,232.164h14.317c0.523-0.449,1.054-0.866,1.592-1.251l0.537-7.351H188.88L193.562,232.164z"
		/>
	<polygon style="fill:#BADFE8;" points="121.196,94.961 115.409,83.633 107.685,86.295 108.314,100.829 	"/>
	<path style="fill:#C69C6D;" d="M52.026,242.898c-0.233,1.796,0.248,3.581,1.355,5.021c1.108,1.439,2.709,2.36,4.51,2.594
		c1.8,0.233,3.586-0.247,5.025-1.355c1.439-1.108,2.361-2.71,2.595-4.511c0.01-0.069,0.021-0.138,0.036-0.206l1.572-7.278H52.782
		L52.026,242.898z"/>
	<path style="fill:#C69C6D;" d="M131.147,73.7c11.73,0,21.274-13.606,21.274-30.331v-7.21c-4.821-0.815-8.114-4.07-9.55-9.352
		c-2.863,1.9-6.982,3.061-11.725,3.061c-4.742,0-8.861-1.161-11.725-3.061c-1.436,5.281-4.73,8.532-9.55,9.348v7.214
		C109.872,60.094,119.416,73.7,131.147,73.7z M140.146,44.2c0.931-0.93,2.601-0.93,3.53,0c0.47,0.46,0.74,1.11,0.74,1.76
		c0,0.66-0.27,1.3-0.74,1.77c-0.46,0.47-1.11,0.73-1.76,0.73c-0.66,0-1.311-0.26-1.77-0.73c-0.47-0.46-0.73-1.11-0.73-1.77
		C139.416,45.3,139.676,44.66,140.146,44.2z M124.669,58.093c1.175,0,2.161,0.811,2.429,1.903c0.486,0.3,1.872,0.819,4.049,0.819
		c2.177,0,3.562-0.52,4.049-0.819c0.268-1.093,1.254-1.903,2.429-1.903c1.381,0,2.5,1.119,2.5,2.5c0,3.075-3.691,5.223-8.978,5.223
		c-5.286,0-8.978-2.147-8.978-5.223C122.169,59.212,123.288,58.093,124.669,58.093z M117.886,45.96c0-0.66,0.26-1.3,0.73-1.76
		c0.92-0.93,2.609-0.939,3.529,0c0.471,0.46,0.74,1.11,0.74,1.76c0,0.66-0.27,1.31-0.74,1.77c-0.46,0.47-1.109,0.73-1.77,0.73
		c-0.65,0-1.3-0.26-1.76-0.73C118.146,47.271,117.886,46.62,117.886,45.96z"/>
	<path style="fill:#754C24;" d="M115.242,20.062c0-1.381,1.119-2.5,2.5-2.5h0.002c1.381,0,2.5,1.119,2.5,2.5
		c0,1.96,4.247,4.807,10.903,4.807c6.656,0,10.903-2.847,10.903-4.807c0-1.381,1.119-2.5,2.5-2.5h0.002c1.381,0,2.5,1.119,2.5,2.5
		c0,6.188,1.809,9.85,5.369,10.946v-12.77c0.005-0.243,0.05-4.203-3.381-7.709C145.451,6.86,139.43,5,131.147,5
		c-8.283,0-14.304,1.86-17.894,5.528c-3.431,3.506-3.386,7.466-3.382,7.633v12.846C113.433,29.911,115.242,26.25,115.242,20.062z"/>
	<path style="fill:#B79870;" d="M202.844,255.198h6.202l5.466-8.706c0.734-1.169,2.278-1.521,3.446-0.788
		c0.33,0.207,0.587,0.483,0.781,0.792l0.007-0.004l5.466,8.706h22.663c-1.538-15.702-9.067-23.955-22.016-23.955
		C211.912,231.243,204.382,239.496,202.844,255.198z"/>
	<path style="fill:#E5CBBD;" d="M296.764,54.749v4.912c0,13.938,7.941,25.278,17.703,25.278c9.762,0,17.703-11.34,17.703-25.278
		v-4.912c-4.102-1.093-13.269-4.213-17.703-11.094C310.033,50.535,300.866,53.655,296.764,54.749z M303.896,63.2
		c-0.66,0-1.3-0.27-1.77-0.73c-0.46-0.47-0.73-1.11-0.73-1.77c0-0.66,0.271-1.31,0.73-1.77c0.93-0.93,2.609-0.93,3.54,0
		c0.46,0.46,0.729,1.11,0.729,1.77c0,0.66-0.27,1.3-0.729,1.77C305.196,62.93,304.556,63.2,303.896,63.2z M323.016,58.93
		c0.93-0.93,2.61-0.93,3.54,0c0.46,0.47,0.73,1.11,0.73,1.77c0,0.66-0.271,1.3-0.73,1.77c-0.47,0.46-1.11,0.73-1.77,0.73
		c-0.66,0-1.301-0.27-1.771-0.73c-0.46-0.47-0.729-1.11-0.729-1.77C322.287,60.04,322.556,59.39,323.016,58.93z M318.645,72.163
		c0.253-1.112,1.248-1.943,2.438-1.943c1.381,0,2.5,1.119,2.5,2.5c0,3.14-3.8,5.333-9.24,5.333c-5.441,0-9.24-2.193-9.24-5.333
		c0-1.381,1.119-2.5,2.5-2.5c1.189,0,2.185,0.831,2.438,1.943c0.493,0.32,1.96,0.89,4.303,0.89
		C316.685,73.053,318.152,72.482,318.645,72.163z"/>
	<path style="fill:#E5CBBD;" d="M249.617,244.105c1.524-0.786,2.675-2.211,3.066-3.944c0.014-0.06,0.029-0.119,0.047-0.177
		l26.102-85.723c-0.765-1.216-1.435-2.58-1.964-4.111c-0.003-0.009-0.006-0.018-0.008-0.026l-14.757-6.704l-19.758,89.194
		C245.239,235.249,247.824,238.944,249.617,244.105z"/>
	<path style="fill:#E0BC4B;" d="M335.137,50.315c1.199,0.229,2.031,1.278,2.03,2.456h0.003v6.889
		c0,10.427-3.973,19.639-10.005,25.087V97.33l16.327,3.918c2.712,0.638,5.133,1.57,7.309,2.695
		c15.357-15.406-5.688-56.235-5.908-56.656c-0.186-0.357-0.284-0.755-0.284-1.158c0-7.688-2.316-13.811-6.884-18.197
		c-6.605-6.342-16.303-7.641-20.758-7.894V35.13C316.967,46.726,334.955,50.281,335.137,50.315z"/>
	<path style="fill:#E0BC4B;" d="M285.454,101.245l16.316-3.916V84.748c-6.033-5.448-10.006-14.661-10.006-25.088v-6.889h0.003
		c-0.001-1.177,0.829-2.226,2.027-2.456c0.182-0.035,18.173-3.632,18.173-15.186V20.041c-4.467,0.26-14.197,1.576-20.778,7.911
		c-4.554,4.384-6.862,10.5-6.862,18.177c0,0.403-0.098,0.801-0.284,1.158c-0.22,0.421-21.268,41.253-5.907,56.658
		C280.314,102.818,282.738,101.883,285.454,101.245z"/>
	<path style="fill:#D8B4A4;" d="M247.176,261.561c0-0.461-0.009-0.912-0.017-1.363h-24.33c-0.86,0-1.66-0.442-2.117-1.171
		l-4.083-6.504l-4.083,6.504c-0.457,0.728-1.257,1.171-2.117,1.171h-7.869c-0.008,0.451-0.017,0.902-0.017,1.363
		c0,15.761,10.011,28.583,22.316,28.583C237.165,290.145,247.176,277.322,247.176,261.561z M212.787,268.211
		c-0.46-0.46-0.73-1.11-0.73-1.77c0-0.66,0.26-1.3,0.73-1.77c0.93-0.93,2.609-0.93,3.54,0c0.46,0.47,0.729,1.11,0.729,1.77
		c0,0.66-0.27,1.3-0.729,1.77c-0.471,0.46-1.11,0.73-1.771,0.73C213.896,268.94,213.247,268.67,212.787,268.211z M230.156,283.347
		c-1.451,0.566-3.329,0.88-5.286,0.884c-0.014,0-0.028,0-0.042,0c-1.941,0-3.803-0.305-5.246-0.861
		c-2.972-1.145-3.42-3.012-3.422-4.023c-0.003-1.38,1.113-2.503,2.494-2.505c0.002,0,0.004,0,0.006,0
		c1.107,0,2.045,0.718,2.374,1.715c0.527,0.276,1.862,0.657,3.825,0.675c1.974-0.004,3.296-0.413,3.824-0.692
		c0.325-0.999,1.264-1.722,2.371-1.724c0.002,0,0.004,0,0.006,0c1.378,0,2.497,1.116,2.5,2.495
		C233.562,280.321,233.122,282.19,230.156,283.347z M236.936,268.16c-0.47,0.47-1.12,0.74-1.77,0.74c-0.66,0-1.311-0.27-1.77-0.74
		c-0.47-0.46-0.73-1.11-0.73-1.76c0-0.66,0.26-1.31,0.73-1.77c0.931-0.93,2.601-0.94,3.54,0c0.46,0.46,0.73,1.11,0.73,1.77
		C237.666,267.05,237.396,267.7,236.936,268.16z"/>
	<path style="fill:#C69C6D;" d="M195.174,237.164c0,0,1.591,7.416,1.608,7.483c0.397,1.545,0.946,2.949,2.037,4.002
		c1.052-4.761,2.694-8.513,4.673-11.485H195.174z"/>
	<path style="fill:#D8B4A4;" d="M215.984,293.315v3.181c0.433,1.077,4.149,4.168,8.859,4.168c0.005,0,0.012,0.001,0.017,0
		c0.008,0.001,0.012,0,0.017,0c4.711,0,8.427-3.092,8.859-4.168v-3.181c-2.785,1.18-5.769,1.829-8.876,1.829
		C221.752,295.145,218.769,294.495,215.984,293.315z"/>
	<path style="fill:#F4A04D;" d="M248.851,301.603c-0.053-0.007-11.13-2.138-11.13-2.138c-2.133,3.189-7.364,6.199-12.846,6.199
		h-0.031c-5.484,0-10.718-3.013-12.849-6.199c0,0-11.074,2.129-11.127,2.137c-10.056,1.662-13.445,6.975-13.545,7.212
		c-0.04,0.094-9.25,16.157-9.25,16.157l15.551,6.125l4.16-7.829c0.538-1.013,1.699-1.531,2.812-1.253
		c1.114,0.277,1.896,1.278,1.896,2.426v38.306h44.734v-38.306c0-1.148,0.781-2.148,1.896-2.426c1.115-0.278,2.273,0.239,2.812,1.253
		l4.16,7.829l15.551-6.125c0,0-9.218-16.073-9.265-16.195C262.248,308.532,259.508,303.054,248.851,301.603z"/>
	<polygon style="fill:#D8B4A4;" points="232.267,401.951 232.267,423.703 241.884,423.703 243.589,401.951 	"/>
	<path style="fill:#BADFE8;" d="M73.46,112.309c-0.008,0.081-0.021,0.171-0.036,0.251L52.633,218.561h22.933l15.532-78.512
		l-13.317-38.23C74.044,107.039,73.497,111.941,73.46,112.309z"/>
	<path style="fill:#998675;" d="M293.114,434.801h18.729v-14.648h-10.914C300.187,423.368,298.197,429.493,293.114,434.801z"/>
	<path style="fill:#D8B4A4;" d="M260.774,334.628l11.893,27.09c0.033,0.077,0.064,0.155,0.089,0.234
		c0.081,0.25,0.396,0.487,0.843,0.634c0.725,0.239,1.655,0.21,2.555-0.082c1.75-0.568,2.619-1.845,2.427-2.44l-10.441-28.338
		L260.774,334.628z"/>
	<path style="fill:#5576A5;" d="M202.493,396.951h17.909l1.971-19.822c0.137-1.374,1.363-2.373,2.734-2.241
		c1.206,0.12,2.126,1.079,2.239,2.241h0.001l1.971,19.822h17.909v-29.204h-44.734V396.951z"/>
	<path style="fill:#E5CBBD;" d="M300.938,415.152h10.904V313.319h-22.343C289.715,323.158,291.169,361.464,300.938,415.152z"/>
	<path style="fill:#E5CBBD;" d="M366.821,143.367l-15.02,6.824c-0.508,1.462-1.146,2.771-1.869,3.945l26.148,85.847
		c0.018,0.059,0.033,0.118,0.047,0.178c0.349,1.543,1.277,2.859,2.615,3.704c1.337,0.845,2.923,1.119,4.467,0.771
		c1.544-0.349,2.859-1.277,3.704-2.615c0.845-1.338,1.118-2.924,0.77-4.467L366.821,143.367z"/>
	<path style="fill:#A881C9;" d="M348.01,129.451c4.085,3.703,5.381,9.424,5.004,14.698l12.701-5.771l-2.315-10.455
		c-0.165-0.712-4.308-17.873-21.062-21.811l-1.975-0.474c-1.806,9.234-11.755,15.238-25.895,15.238
		c-14.139,0-24.079-6.007-25.884-15.24l-1.975,0.474c-16.766,3.94-20.909,21.102-21.077,21.83l-2.323,10.489l12.458,5.66
		c-0.363-5.257,0.939-10.95,5.009-14.638c1.023-0.929,2.604-0.85,3.531,0.173c0.927,1.023,0.85,2.604-0.174,3.531
		c-3.871,3.51-4.157,10.385-2.439,15.363c1.341,3.884,3.714,6.407,6.193,6.584c1.252,0.09,2.243,1.094,2.317,2.347l0.853,14.491
		c0.032,0.553-0.119,1.1-0.432,1.557c-19.03,27.861-20.873,118.562-21.05,134.822h89.732c-0.177-16.261-2.023-106.967-21.05-134.822
		c-0.312-0.457-0.464-1.005-0.432-1.557l0.853-14.491c0.074-1.253,1.065-2.257,2.317-2.347c2.478-0.177,4.852-2.7,6.192-6.583
		c1.719-4.978,1.434-11.854-2.438-15.364c-1.023-0.927-1.101-2.508-0.174-3.531C345.407,128.602,346.987,128.522,348.01,129.451z"/>
	<path style="fill:#998675;" d="M316.842,420.152v14.648h18.729c-5.083-5.308-7.073-11.433-7.815-14.648H316.842z"/>
	<path style="fill:#E5CBBD;" d="M316.842,415.152h10.905c9.774-53.729,11.224-92.007,11.439-101.833h-22.344V415.152z"/>
	<path style="fill:#E5CBBD;" d="M314.467,89.938c-2.701,0-5.293-0.635-7.697-1.794v11.157c0,1.156-0.793,2.161-1.917,2.431
		l-11.384,2.731c1.27,6.898,9.375,11.413,20.998,11.413c11.624,0,19.728-4.514,20.998-11.413l-11.383-2.731
		c-1.124-0.27-1.917-1.275-1.917-2.431V88.143C319.76,89.303,317.168,89.938,314.467,89.938z"/>
	<path style="fill:#754C24;" d="M91.288,425.467c-2.564,2.717-3.339,6.783-3.565,9.334h32.422v-12.33h-21
		C95.762,422.471,93.192,423.451,91.288,425.467z"/>
	<path style="fill:#754C24;" d="M163.149,422.471h-21v12.33h32.429c-0.222-2.549-0.994-6.614-3.588-9.35
		C169.088,423.446,166.523,422.471,163.149,422.471z"/>
	<path style="fill:#898785;" d="M166.112,239.848h-69.93v177.623h24.09l8.376-161.271l0.017,0.001
		c0.066-1.263,1.064-2.3,2.355-2.368c1.35-0.078,2.556,0.988,2.627,2.367l8.376,161.271h24.09V239.848z"/>
	<path style="fill:#BADFE8;" d="M96.182,139.867v94.98h32.463V109.539l-5.172-10.122l-16.46,7.498
		c-0.33,0.15-0.684,0.225-1.036,0.225c-0.455,0-0.907-0.124-1.307-0.369c-0.709-0.435-1.155-1.193-1.191-2.023l-0.727-16.754
		l-7.293,2.514c-0.062,0.021-0.124,0.04-0.187,0.056c-6.104,1.584-10.501,4.166-13.676,7.007l14.446,41.473
		C96.06,139.093,96.182,139.466,96.182,139.867z"/>
	<path style="fill:#D8B4A4;" d="M171.112,360.148v0.286c0.122,0.596,0.966,1.588,2.455,2.071c0.9,0.291,1.83,0.32,2.555,0.082
		c0.446-0.147,0.762-0.385,0.843-0.634c0.025-0.08,0.056-0.158,0.089-0.234l11.892-27.09l-7.364-2.901L171.112,360.148z"/>
	<path style="fill:#999999;" d="M232.267,428.703v6.098h19.4c-0.285-1.323-0.867-2.934-2.053-4.148
		c-1.28-1.312-3.053-1.949-5.419-1.949H232.267z"/>
	<path style="fill:#999999;" d="M200.105,430.652c-1.185,1.214-1.768,2.825-2.053,4.148h19.4v-6.098h-11.929
		C203.158,428.703,201.385,429.341,200.105,430.652z"/>
	<polygon style="fill:#D8B4A4;" points="207.835,423.703 217.453,423.703 217.453,401.951 206.129,401.951 	"/>
	<path style="fill:#1C1B1A;" d="M231.06,276.815c-0.002,0-0.004,0-0.006,0c-1.107,0.003-2.046,0.725-2.371,1.724
		c-0.528,0.279-1.851,0.688-3.824,0.692c-1.963-0.018-3.298-0.399-3.825-0.675c-0.329-0.997-1.268-1.715-2.374-1.715
		c-0.002,0-0.004,0-0.006,0c-1.381,0.003-2.497,1.125-2.494,2.505c0.002,1.011,0.45,2.878,3.422,4.023
		c1.443,0.556,3.305,0.861,5.246,0.861c0.014,0,0.028,0,0.042,0c1.957-0.004,3.835-0.318,5.286-0.884
		c2.967-1.157,3.406-3.026,3.404-4.037C233.557,277.931,232.438,276.815,231.06,276.815z"/>
	<path style="fill:#1C1B1A;" d="M217.056,266.44c0-0.66-0.27-1.3-0.729-1.77c-0.931-0.93-2.61-0.93-3.54,0
		c-0.471,0.47-0.73,1.11-0.73,1.77c0,0.66,0.271,1.31,0.73,1.77c0.46,0.46,1.109,0.73,1.77,0.73c0.66,0,1.3-0.27,1.771-0.73
		C216.787,267.74,217.056,267.1,217.056,266.44z"/>
	<path style="fill:#1C1B1A;" d="M233.396,264.63c-0.47,0.46-0.73,1.11-0.73,1.77c0,0.65,0.26,1.3,0.73,1.76
		c0.46,0.47,1.11,0.74,1.77,0.74c0.649,0,1.3-0.27,1.77-0.74c0.46-0.46,0.73-1.11,0.73-1.76c0-0.66-0.27-1.31-0.73-1.77
		C235.997,263.69,234.327,263.7,233.396,264.63z"/>
	<path style="fill:#1C1B1A;" d="M307.602,70.22c-1.381,0-2.5,1.119-2.5,2.5c0,3.14,3.8,5.333,9.24,5.333
		c5.44,0,9.24-2.193,9.24-5.333c0-1.381-1.119-2.5-2.5-2.5c-1.19,0-2.185,0.831-2.438,1.943c-0.493,0.32-1.96,0.89-4.303,0.89
		c-2.343,0-3.81-0.57-4.303-0.89C309.787,71.05,308.791,70.22,307.602,70.22z"/>
	<path style="fill:#1C1B1A;" d="M306.396,60.7c0-0.66-0.27-1.31-0.729-1.77c-0.931-0.93-2.61-0.93-3.54,0
		c-0.46,0.46-0.73,1.11-0.73,1.77c0,0.66,0.271,1.3,0.73,1.77c0.47,0.46,1.109,0.73,1.77,0.73c0.66,0,1.3-0.27,1.771-0.73
		C306.126,62,306.396,61.36,306.396,60.7z"/>
	<path style="fill:#1C1B1A;" d="M324.787,63.2c0.659,0,1.3-0.27,1.77-0.73c0.46-0.47,0.73-1.11,0.73-1.77
		c0-0.66-0.271-1.3-0.73-1.77c-0.93-0.93-2.61-0.93-3.54,0c-0.46,0.46-0.729,1.11-0.729,1.77c0,0.66,0.27,1.3,0.729,1.77
		C323.486,62.93,324.126,63.2,324.787,63.2z"/>
	<path style="fill:#1C1B1A;" d="M131.147,65.815c5.286,0,8.978-2.147,8.978-5.223c0-1.381-1.119-2.5-2.5-2.5
		c-1.175,0-2.161,0.811-2.429,1.903c-0.486,0.299-1.872,0.819-4.049,0.819c-2.177,0-3.562-0.52-4.049-0.819
		c-0.268-1.092-1.254-1.903-2.429-1.903c-1.381,0-2.5,1.119-2.5,2.5C122.169,63.668,125.861,65.815,131.147,65.815z"/>
	<path style="fill:#1C1B1A;" d="M122.146,47.73c0.471-0.46,0.74-1.11,0.74-1.77c0-0.65-0.27-1.3-0.74-1.76
		c-0.92-0.939-2.609-0.93-3.529,0c-0.471,0.46-0.73,1.1-0.73,1.76c0,0.66,0.26,1.31,0.73,1.77c0.46,0.47,1.109,0.73,1.76,0.73
		C121.037,48.46,121.686,48.2,122.146,47.73z"/>
	<path style="fill:#1C1B1A;" d="M141.916,48.46c0.649,0,1.3-0.26,1.76-0.73c0.47-0.47,0.74-1.11,0.74-1.77
		c0-0.65-0.27-1.3-0.74-1.76c-0.93-0.93-2.6-0.93-3.53,0c-0.47,0.46-0.73,1.1-0.73,1.76c0,0.66,0.26,1.31,0.73,1.77
		C140.606,48.2,141.256,48.46,141.916,48.46z"/>
	<path style="fill:#1C1B1A;" d="M368.279,126.831c-0.147-0.651-2.976-12.531-13.157-20.175c15.705-17.518-2.841-55.854-5.517-61.139
		c-0.125-8.82-2.955-15.947-8.417-21.191c-9.998-9.6-25.228-9.384-26.723-9.339c-1.523-0.043-16.733-0.249-26.718,9.339
		c-5.462,5.244-8.292,12.372-8.417,21.191c-2.676,5.285-21.215,43.617-5.508,61.136c-10.189,7.644-13.019,19.529-13.169,20.19
		l-22.728,102.607c-4.82-2.655-9.803-3.206-13.066-3.206c-2.61,0-6.322,0.353-10.17,1.851l0.501-6.851
		c0.017-0.222-21.393-109.533-21.393-109.533c-0.219-1.976-2.823-20.05-25.426-25.961l-20.226-6.971v-8.502
		c5.668-6.486,9.274-16.138,9.274-26.907l-0.002-25.035c0.01-0.248,0.181-6.121-4.698-11.192C148.163,2.403,140.905,0,131.147,0
		c-9.758,0-17.017,2.403-21.574,7.142c-4.879,5.072-4.708,10.945-4.7,11.095v25.132c0,10.769,3.607,20.421,9.274,26.907v8.502
		l-20.226,6.971c-22.604,5.912-25.208,23.987-25.426,25.961L47.143,220.58c-0.043,0.218-0.057,0.441-0.04,0.663l0.976,13.347
		l-1.011,7.659c-0.406,3.125,0.429,6.222,2.352,8.719c1.923,2.498,4.702,4.097,7.827,4.503c0.517,0.067,1.033,0.101,1.547,0.101
		c2.587,0,5.089-0.847,7.173-2.451c2.469-1.9,4.06-4.638,4.489-7.719l2.129-9.856l7.231-13.289c0.12-0.222,0.207-0.461,0.256-0.709
		l11.11-56.16v71.961c0,0.004,0.002,0.009,0.002,0.014c0,0.004-0.002,0.009-0.002,0.014v181.949
		c-1.306,0.706-2.486,1.607-3.529,2.711c-5.49,5.816-5.026,15.021-5.004,15.41c0.076,1.323,1.171,2.356,2.496,2.356h37.5
		c1.381,0,2.5-1.119,2.5-2.5v-17.256l6.002-115.549l6.002,115.549v17.256c0,1.381,1.119,2.5,2.5,2.5h37.5
		c1.325,0,2.42-1.033,2.496-2.356c0.023-0.389,0.486-9.594-5.004-15.41c-1.043-1.105-2.224-2.006-3.529-2.711v-52.411
		c0.296,0.127,0.598,0.247,0.914,0.349c0.997,0.324,2.02,0.485,3.018,0.485c0.917,0,1.812-0.137,2.645-0.411
		c1.933-0.639,3.377-1.984,3.985-3.704l11.927-27.169l0.268,0.105c1.184,0.465,2.526-0.03,3.124-1.153l0.5-0.942v64.979
		c0,1.381,1.119,2.5,2.5,2.5h1.122l1.723,21.973c-2.539,0.44-4.666,1.535-6.346,3.272c-3.871,4.002-3.719,9.937-3.711,10.188
		c0.045,1.347,1.15,2.417,2.499,2.417h24.673c1.381,0,2.5-1.119,2.5-2.5v-35.35h0.213c0.943,0,1.769-0.527,2.194-1.311
		c0.426,0.785,1.251,1.311,2.194,1.311h0.213v35.35c0,1.381,1.119,2.5,2.5,2.5h24.673c1.349,0,2.454-1.069,2.499-2.417
		c0.008-0.251,0.16-6.186-3.711-10.188c-1.68-1.737-3.807-2.832-6.346-3.272l1.723-21.973h1.122c1.381,0,2.5-1.119,2.5-2.5v-64.979
		l0.5,0.942c0.598,1.123,1.941,1.617,3.124,1.153l0.268-0.105l11.927,27.169c0.608,1.721,2.053,3.066,3.985,3.704
		c0.833,0.274,1.729,0.411,2.646,0.411c0.997,0,2.021-0.161,3.018-0.485c4.3-1.393,6.778-5.232,5.609-8.831l-10.511-28.537
		l3.379-1.331c0.676-0.267,1.203-0.814,1.443-1.499c0.24-0.686,0.17-1.442-0.191-2.072l-6.703-11.673h13.778
		c0.215,9.978,1.696,49.347,11.823,104.375c-0.319,1.918-2.381,11.839-11.571,17.475c-0.954,0.586-1.403,1.733-1.1,2.811
		c0.304,1.077,1.287,1.821,2.406,1.821h56.571c1.119,0,2.102-0.744,2.406-1.821c0.304-1.078-0.146-2.225-1.1-2.811
		c-9.194-5.639-11.253-15.566-11.57-17.477c10.119-54.997,11.604-94.369,11.821-104.373h17.541c1.381,0,2.5-1.119,2.5-2.5
		c0-4.378-0.246-106.844-21.459-139.422l0.691-11.74c0.887-0.288,1.737-0.714,2.543-1.26l25.27,82.96
		c0.659,2.805,2.36,5.194,4.8,6.735c1.768,1.117,3.771,1.692,5.812,1.692c0.808,0,1.62-0.09,2.427-0.272
		c2.846-0.643,5.272-2.355,6.83-4.822c1.559-2.467,2.062-5.393,1.421-8.229L368.279,126.831z M316.967,20.038
		c4.455,0.253,14.152,1.552,20.758,7.894c4.567,4.386,6.884,10.509,6.884,18.197c0,0.403,0.098,0.801,0.284,1.158
		c0.22,0.421,21.265,41.25,5.908,56.656c-2.176-1.125-4.597-2.058-7.309-2.695l-16.327-3.918V84.748
		c6.032-5.448,10.005-14.661,10.005-25.087v-6.889h-0.003c0.001-1.178-0.831-2.228-2.03-2.456
		c-0.182-0.035-18.17-3.589-18.17-15.185V20.038z M324.082,101.732l11.383,2.731c-1.27,6.898-9.374,11.413-20.998,11.413
		c-11.623,0-19.729-4.514-20.998-11.413l11.384-2.731c1.124-0.27,1.917-1.275,1.917-2.431V88.144
		c2.404,1.159,4.996,1.794,7.697,1.794c2.701,0,5.293-0.635,7.698-1.795v11.158C322.165,100.457,322.958,101.462,324.082,101.732z
		 M314.467,43.655c4.434,6.88,13.602,10,17.703,11.094v4.912c0,13.938-7.941,25.278-17.703,25.278
		c-9.762,0-17.703-11.34-17.703-25.278v-4.912C300.866,53.655,310.033,50.535,314.467,43.655z M284.042,47.287
		c0.186-0.357,0.284-0.755,0.284-1.158c0-7.677,2.309-13.792,6.862-18.177c6.581-6.335,16.312-7.651,20.778-7.911V35.13
		c0,11.554-17.991,15.151-18.173,15.186c-1.198,0.229-2.028,1.278-2.027,2.456h-0.003v6.889c0,10.427,3.973,19.64,10.006,25.088
		V97.33l-16.316,3.916c-2.716,0.638-5.14,1.573-7.318,2.7C262.775,88.54,283.823,47.708,284.042,47.287z M262.103,143.419
		l14.757,6.704c0.002,0.008,0.005,0.018,0.008,0.026c0.529,1.531,1.199,2.895,1.964,4.111l-26.102,85.723
		c-0.018,0.058-0.033,0.118-0.047,0.177c-0.392,1.733-1.542,3.159-3.066,3.944c-1.793-5.161-4.378-8.857-7.271-11.492
		L262.103,143.419z M224.86,290.145c-12.306,0-22.316-12.822-22.316-28.583c0-0.461,0.009-0.912,0.017-1.363h7.869
		c0.86,0,1.66-0.442,2.117-1.171l4.083-6.504l4.083,6.504c0.457,0.728,1.257,1.171,2.117,1.171h24.33
		c0.008,0.451,0.017,0.902,0.017,1.363C247.176,277.322,237.165,290.145,224.86,290.145z M233.736,293.315v3.181
		c-0.433,1.076-4.148,4.168-8.859,4.168c-0.005,0-0.009,0.001-0.017,0c-0.005,0.001-0.012,0-0.017,0
		c-4.71,0-8.427-3.091-8.859-4.168v-3.181c2.785,1.18,5.769,1.829,8.876,1.829C227.967,295.145,230.951,294.495,233.736,293.315z
		 M198.82,248.649c-1.091-1.053-1.64-2.456-2.037-4.002c-0.018-0.067-1.608-7.483-1.608-7.483h8.318
		C201.514,240.137,199.872,243.888,198.82,248.649z M238.736,290.472c8.037-5.853,13.44-16.618,13.44-28.911
		c0-4.82-0.442-8.98-1.213-12.585c3.244-1.309,5.75-4.118,6.575-7.618l25.242-82.903c0.777,0.514,1.593,0.925,2.445,1.202
		l0.69,11.74c-18.163,27.893-20.954,107.014-21.382,131.94c-2.423-2.544-6.938-5.653-14.975-6.685l-10.823-2.085V290.472z
		 M224.86,231.243c12.948,0,20.478,8.253,22.016,23.955h-22.663l-5.466-8.706l-0.007,0.004c-0.194-0.31-0.451-0.585-0.781-0.792
		c-1.168-0.733-2.712-0.381-3.446,0.788l-5.466,8.706h-6.202C204.382,239.496,211.912,231.243,224.86,231.243z M209.471,230.913
		c-0.538,0.386-1.068,0.802-1.592,1.251h-14.317l-4.682-8.603h21.128L209.471,230.913z M188.832,112.299
		c0.008,0.087,0.021,0.175,0.037,0.261l20.791,106.001h-22.933l-15.532-78.512l13.317-38.231
		C188.248,107.037,188.797,111.937,188.832,112.299z M156.317,107.141c0.454,0,0.907-0.124,1.307-0.369
		c0.709-0.435,1.155-1.193,1.191-2.023l0.727-16.754l7.293,2.514c0.062,0.021,0.124,0.04,0.187,0.056
		c6.104,1.584,10.501,4.167,13.677,7.007l-14.447,41.473c-0.017,0.048-0.139,0.379-0.139,0.822v94.98h-32.463V109.539l5.172-10.123
		l16.46,7.499C155.611,107.066,155.964,107.141,156.317,107.141z M131.147,103.446l-12-23.487v-5.175
		c3.6,2.497,7.678,3.917,12,3.917c4.322,0,8.4-1.419,12-3.917v5.175L131.147,103.446z M154.609,86.295l-0.629,14.534l-12.882-5.869
		l5.787-11.327L154.609,86.295z M113.253,10.528C116.843,6.86,122.864,5,131.147,5c8.283,0,14.304,1.86,17.894,5.528
		c3.431,3.506,3.386,7.466,3.381,7.709v12.77c-3.561-1.096-5.369-4.758-5.369-10.946c0-1.381-1.119-2.5-2.5-2.5h-0.002
		c-1.381,0-2.5,1.119-2.5,2.5c0,1.96-4.247,4.807-10.903,4.807c-6.656,0-10.903-2.847-10.903-4.807c0-1.381-1.119-2.5-2.5-2.5
		h-0.002c-1.381,0-2.5,1.119-2.5,2.5c0,6.189-1.809,9.85-5.37,10.946V18.161C109.868,17.994,109.823,14.034,113.253,10.528z
		 M109.872,43.369v-7.214c4.819-0.815,8.114-4.067,9.55-9.348c2.863,1.9,6.982,3.061,11.725,3.061c4.742,0,8.861-1.161,11.725-3.061
		c1.436,5.281,4.729,8.536,9.55,9.352v7.21c0,16.725-9.544,30.331-21.274,30.331C119.416,73.7,109.872,60.094,109.872,43.369z
		 M115.409,83.633l5.787,11.328l-12.882,5.868l-0.629-14.534L115.409,83.633z M65.547,244.442c-0.015,0.068-0.026,0.137-0.036,0.206
		c-0.233,1.801-1.155,3.403-2.595,4.511c-1.439,1.108-3.226,1.588-5.025,1.355c-1.801-0.234-3.401-1.155-4.51-2.594
		c-1.107-1.439-1.589-3.224-1.355-5.021l0.756-5.734H67.12L65.547,244.442z M68.732,232.164H52.914l-0.629-8.603h21.128
		L68.732,232.164z M75.566,218.561H52.633L73.424,112.56c0.016-0.08,0.028-0.17,0.036-0.251c0.036-0.368,0.584-5.271,4.32-10.49
		l13.317,38.23L75.566,218.561z M81.597,97.572c3.175-2.841,7.571-5.424,13.676-7.007c0.062-0.016,0.125-0.035,0.187-0.056
		l7.293-2.514l0.727,16.754c0.036,0.83,0.482,1.588,1.191,2.023c0.399,0.245,0.852,0.369,1.307,0.369
		c0.353,0,0.706-0.075,1.036-0.225l16.46-7.498l5.172,10.122v125.309H96.182v-94.98c0-0.401-0.122-0.774-0.139-0.822L81.597,97.572z
		 M120.145,434.801H87.723c0.227-2.55,1.001-6.617,3.565-9.334c1.903-2.017,4.474-2.997,7.856-2.997h21V434.801z M133.646,256.2
		c-0.071-1.379-1.277-2.444-2.627-2.367c-1.291,0.067-2.289,1.105-2.355,2.368l-0.017-0.001l-8.376,161.271h-24.09V239.848h69.93
		v177.623h-24.09L133.646,256.2z M174.578,434.801h-32.429v-12.33h21c3.374,0,5.939,0.975,7.841,2.98
		C173.583,428.186,174.356,432.252,174.578,434.801z M171.11,237.361c0-0.004,0.002-0.009,0.002-0.014v-71.961
		c0,0,11.246,56.647,11.366,56.87l7.231,13.289l2.13,9.857c1.335,5.023,2.841,6.963,6.102,8.729
		c-0.252,2.292-0.397,4.752-0.397,7.43c0,12.293,5.403,23.058,13.44,28.911v4.096l-10.823,2.085
		c-12.922,1.659-16.748,8.688-17.393,10.104l-10.472,18.235c-0.361,0.63-0.432,1.387-0.191,2.072
		c0.24,0.685,0.768,1.232,1.443,1.499l3.379,1.331l-5.815,15.792V237.375C171.112,237.371,171.11,237.366,171.11,237.361z
		 M177.053,361.719c-0.033,0.077-0.064,0.155-0.089,0.234c-0.081,0.25-0.396,0.487-0.843,0.634c-0.725,0.239-1.654,0.21-2.555-0.082
		c-1.489-0.483-2.333-1.476-2.455-2.071v-0.286l10.469-28.421l7.364,2.901L177.053,361.719z M217.453,434.801h-19.4
		c0.285-1.324,0.868-2.935,2.053-4.148c1.28-1.312,3.053-1.949,5.419-1.949h11.929V434.801z M217.453,423.703h-9.617l-1.706-21.752
		h11.323V423.703z M249.615,430.652c1.186,1.214,1.768,2.826,2.053,4.148h-19.4v-6.098h11.929
		C246.562,428.703,248.334,429.341,249.615,430.652z M232.267,423.703v-21.752h11.322l-1.705,21.752H232.267z M247.227,396.951
		h-17.909l-1.971-19.822h-0.001c-0.113-1.162-1.033-2.121-2.239-2.241c-1.371-0.132-2.598,0.867-2.734,2.241l-1.971,19.822h-17.909
		v-29.204h44.734V396.951z M278.58,360.065c0.192,0.596-0.677,1.873-2.427,2.44c-0.899,0.291-1.83,0.321-2.555,0.082
		c-0.446-0.147-0.762-0.385-0.843-0.634c-0.025-0.08-0.056-0.158-0.089-0.234l-11.893-27.09l7.365-2.901L278.58,360.065z
		 M271.646,324.972l-15.551,6.125l-4.16-7.829c-0.539-1.013-1.697-1.531-2.812-1.253c-1.114,0.277-1.896,1.278-1.896,2.426v38.306
		h-44.734v-38.306c0-1.148-0.781-2.148-1.896-2.426c-1.113-0.278-2.274,0.239-2.812,1.253l-4.16,7.829l-15.551-6.125
		c0,0,9.21-16.063,9.25-16.157c0.1-0.237,3.489-5.551,13.545-7.212c0.053-0.009,11.127-2.137,11.127-2.137
		c2.131,3.186,7.364,6.199,12.849,6.199h0.031c5.481,0,10.713-3.01,12.846-6.199c0,0,11.077,2.13,11.13,2.138
		c10.657,1.452,13.397,6.929,13.53,7.175C262.428,308.899,271.646,324.972,271.646,324.972z M311.842,434.801h-18.729
		c5.083-5.308,7.073-11.433,7.815-14.648h10.914V434.801z M311.842,415.152h-10.904c-9.769-53.688-11.223-91.994-11.439-101.833
		h22.343V415.152z M335.572,434.801h-18.729v-14.648h10.915C328.498,423.368,330.489,429.493,335.572,434.801z M327.747,415.152
		h-10.905V313.319h22.344C338.971,323.146,337.522,361.423,327.747,415.152z M344.653,133.155c3.871,3.51,4.156,10.386,2.438,15.364
		c-1.341,3.884-3.714,6.406-6.192,6.583c-1.252,0.09-2.243,1.094-2.317,2.347l-0.853,14.491c-0.032,0.552,0.119,1.1,0.432,1.557
		c19.026,27.855,20.873,118.561,21.05,134.822h-89.732c0.177-16.26,2.02-106.961,21.05-134.822c0.312-0.457,0.464-1.004,0.432-1.557
		l-0.853-14.491c-0.074-1.253-1.065-2.257-2.317-2.347c-2.479-0.177-4.853-2.7-6.193-6.584c-1.719-4.978-1.433-11.854,2.439-15.363
		c1.023-0.927,1.101-2.508,0.174-3.531c-0.928-1.022-2.508-1.102-3.531-0.173c-4.069,3.689-5.372,9.381-5.009,14.638l-12.458-5.66
		l2.323-10.489c0.168-0.729,4.311-17.89,21.077-21.83l1.975-0.474c1.805,9.233,11.745,15.24,25.884,15.24
		c14.141,0,24.09-6.004,25.895-15.238l1.975,0.474c16.755,3.938,20.897,21.099,21.062,21.811l2.315,10.455l-12.701,5.771
		c0.377-5.274-0.919-10.996-5.004-14.698c-1.023-0.929-2.603-0.849-3.531,0.173C343.552,130.646,343.629,132.227,344.653,133.155z
		 M386.913,242.021c-0.845,1.337-2.16,2.266-3.704,2.615c-1.544,0.348-3.13,0.075-4.467-0.771c-1.338-0.845-2.267-2.161-2.615-3.704
		c-0.014-0.06-0.029-0.12-0.047-0.178l-26.148-85.847c0.724-1.174,1.361-2.483,1.869-3.945l15.02-6.824l20.862,94.187
		C388.032,239.097,387.758,240.683,386.913,242.021z"/>
</g>
</svg>